PathFileType	4	(X/Y/Z)	imu.trc
DataRate	CameraRate	NumFrames	NumMarkers	Units	OrigDataRate	OrigDataStartFrame	OrigNumFrames
60	60	127	2	mm	60	634	1056
Frame#	Time	humerus	radius
X1	Y1	Z1	X2	Y2	Z2

634	6.33005	5.33992	5.14322	5.31262	5.2367	5.45306	5.11501	
635	6.34005	5.3676	5.14644	5.34229	5.24997	5.451	5.131	
636	6.35005	5.39572	5.15009	5.37232	5.26319	5.4495	5.14706	
637	6.36005	5.42458	5.15407	5.40296	5.28997	5.44851	5.18007	
638	6.37005	5.45355	5.15866	5.4337	5.30338	5.44869	5.19676	
639	6.38005	5.48198	5.16396	5.46403	5.31694	5.44909	5.21361	
640	6.39005	5.50944	5.17004	5.49351	5.33071	5.44976	5.23064	
641	6.40005	5.53561	5.17698	5.52175	5.34476	5.45094	5.24793	
642	6.41005	5.56036	5.18486	5.5485	5.35858	5.45262	5.26512	
643	6.42005	5.58357	5.19366	5.57381	5.38518	5.45774	5.29912	
644	6.43005	5.60563	5.20311	5.59817	5.39798	5.46095	5.31582	
645	6.44005	5.62724	5.21297	5.62203	5.41101	5.46417	5.33274	
646	6.45005	5.64805	5.22319	5.64521	5.42427	5.46735	5.3498	
647	6.46005	5.66782	5.23383	5.6674	5.45145	5.47467	5.3844	
648	6.47005	5.68647	5.24494	5.68851	5.4648	5.47878	5.40148	
649	6.48005	5.70422	5.25633	5.70863	5.47789	5.48315	5.41842	
650	6.49005	5.72188	5.26799	5.72855	5.49067	5.48772	5.4351	
651	6.50005	5.73993	5.27975	5.74865	5.5035	5.49248	5.4518	
652	6.51005	5.75839	5.29154	5.76892	5.52991	5.50208	5.48566	
653	6.52005	5.77689	5.30353	5.78916	5.54391	5.50686	5.50315	
654	6.53005	5.79547	5.3156	5.80929	5.55828	5.51175	5.52095	
655	6.54005	5.81364	5.32796	5.82897	5.57245	5.5169	5.53853	
656	6.55006	5.83034	5.34074	5.84736	5.58615	5.52243	5.55572	
657	6.56006	5.84485	5.35411	5.86379	5.59914	5.52831	5.57233	
658	6.57006	5.85753	5.36812	5.87875	5.61142	5.53449	5.58833	
659	6.58006	5.86898	5.38258	5.89271	5.63377	5.54781	5.61877	
660	6.59006	5.87976	5.39733	5.90619	5.64561	5.55548	5.63311	
661	6.60006	5.89079	5.41212	5.9199	5.65767	5.56321	5.64768	
662	6.61006	5.90227	5.42685	5.93379	5.67033	5.5711	5.66251	
663	6.62006	5.91419	5.44152	5.94776	5.68312	5.57915	5.67733	
664	6.63006	5.92638	5.45628	5.96171	5.70885	5.59547	5.70702	
665	6.64006	5.93815	5.47127	5.97515	5.72119	5.60405	5.72138	
666	6.65006	5.94902	5.48652	5.98781	5.73289	5.61293	5.73528	
667	6.66006	5.95924	5.50203	5.99988	5.74392	5.62229	5.74854	
668	6.67006	5.96867	5.51777	6.01135	5.76471	5.64121	5.77402	
669	6.68006	5.97719	5.53368	6.02215	5.77468	5.65086	5.78627	
670	6.69006	5.98487	5.54976	6.03222	5.78421	5.66083	5.79813	
671	6.70006	5.99175	5.56604	6.04166	5.79336	5.67082	5.80981	
672	6.71006	5.99795	5.58244	6.05063	5.80222	5.68097	5.82128	
673	6.72006	6.00357	5.59886	6.0591	5.81042	5.69124	5.83239	
674	6.73006	6.00859	5.61521	6.06717	5.82509	5.71211	5.85387	
675	6.74006	6.01327	5.63143	6.07495	5.83134	5.72273	5.86389	
676	6.75006	6.01794	5.64755	6.08257	5.83705	5.73349	5.87345	
677	6.76006	6.02288	5.66362	6.09015	5.84255	5.74415	5.88279	
678	6.77006	6.02827	5.67957	6.09775	5.84876	5.75462	5.89221	
679	6.78006	6.03397	5.6954	6.10541	5.8557	5.76494	5.90194	
680	6.79006	6.03998	5.71113	6.11309	5.87081	5.78582	5.92188	
681	6.80006	6.03998	5.71113	6.11309	5.8784	5.79637	5.9317	
682	6.81006	6.03998	5.71113	6.11309	5.88529	5.80702	5.94111	
683	6.82006	6.04302	5.71901	6.11685	5.89145	5.81785	5.95004	
684	6.83006	6.04302	5.71901	6.11685	5.89679	5.82908	5.95855	
685	6.84006	6.05126	5.74291	6.12738	5.90115	5.84054	5.96659	
686	6.85006	6.05353	5.75085	6.13054	5.90887	5.86361	5.98222	
687	6.86006	6.05913	5.77492	6.1394	5.91309	5.87488	5.99016	
688	6.87006	6.06948	5.83089	6.1584	5.91733	5.88616	5.9979	
689	6.88006	6.07224	5.84682	6.16353	5.92162	5.89735	6.00563	
690	6.89006	6.07604	5.87084	6.17075	5.92994	5.9199	6.0208	
691	6.90006	6.07848	5.88693	6.17527	5.9331	5.93154	6.02779	
692	6.91006	6.08066	5.90311	6.17961	5.93545	5.94337	6.03454	
693	6.92006	6.08269	5.91937	6.18388	5.93758	5.95528	6.04126	
694	6.93006	6.08358	5.9274	6.18598	5.93964	5.96714	6.04783	
695	6.94006	6.08563	5.95138	6.19217	5.94356	5.99086	6.06107	
696	6.95006	6.08622	5.9672	6.1961	5.94463	6.00266	6.06748	
697	6.96006	6.08612	5.97512	6.19801	5.94475	6.01436	6.07338	
698	6.97006	6.08436	5.99913	6.20204	5.94454	6.02593	6.07926	
699	6.98006	6.08301	6.01516	6.20428	5.944	6.03735	6.08504	
700	6.99007	6.08173	6.03089	6.20659	5.94333	6.04862	6.09088	
701	7.00007	6.08056	6.04624	6.20887	5.94288	6.07032	6.1028	
702	7.01007	6.07997	6.0537	6.21007	5.94289	6.08096	6.10902	
703	7.02007	6.07838	6.07561	6.2139	5.94244	6.09138	6.1152	
704	7.03007	6.07777	6.08277	6.21521	5.94128	6.10173	6.12117	
705	7.04007	6.07608	6.09694	6.21764	5.93889	6.112	6.12684	
706	7.05007	6.07269	6.1178	6.22108	5.93136	6.13155	6.13754	
707	7.06007	6.07192	6.1245	6.22288	5.92822	6.14081	6.14296	
708	7.07007	6.07129	6.131	6.22466	5.92621	6.1498	6.14857	
709	7.08007	6.06986	6.15026	6.23028	5.92461	6.15875	6.15425	
710	7.09007	6.06904	6.16263	6.23412	5.92323	6.16755	6.15991	
711	7.10007	6.06798	6.17466	6.23786	5.91966	6.18441	6.17101	
712	7.11007	6.06652	6.18642	6.24148	5.91701	6.19228	6.17635	
713	7.12007	6.06476	6.19783	6.24495	5.91394	6.19996	6.18154	
714	7.13007	6.06293	6.20895	6.24832	5.91083	6.20751	6.18669	
715	7.14007	6.06123	6.2197	6.25156	5.90992	6.21477	6.19218	
716	7.15007	6.05967	6.23028	6.25475	5.90856	6.22869	6.20297	
717	7.16007	6.05833	6.2405	6.25777	5.90803	6.23543	6.2083	
718	7.17007	6.05712	6.25037	6.26063	5.90753	6.24204	6.21354	
719	7.18007	6.05596	6.25966	6.26337	5.90685	6.24845	6.21857	
720	7.19007	6.05542	6.26412	6.26467	5.90604	6.25459	6.22334	
721	7.20007	6.05403	6.27711	6.26824	5.90461	6.2665	6.23214	
722	7.21007	6.05313	0.00224892	6.27039	5.90412	6.27227	6.23628	
723	7.22007	6.05242	0.0103284	6.27242	5.90378	6.27796	6.24029	
724	7.23007	6.05199	0.0181738	6.27441	5.90355	0.000223074	6.24415	
725	7.24007	6.05174	0.0257623	6.2763	5.9034	0.00553059	6.24784	
726	7.25007	6.0516	0.0330069	6.27805	5.90338	0.0158886	6.25483	
727	7.26007	6.0514	0.0398917	6.27963	5.90314	0.0207727	6.25818	
728	7.27007	6.05101	0.0464706	6.28102	5.90254	0.0253995	6.26139	
729	7.28007	6.05021	0.0527176	6.28231	5.90154	0.0298357	6.26444	
730	7.29007	6.049	0.0585664	0.000358126	5.89827	0.0378471	6.27022	
731	7.30007	6.04776	0.0641098	0.00156236	5.89676	0.0416001	6.2729	
732	7.31007	6.04703	0.0693404	0.00257576	5.89604	0.0451737	6.2754	
733	7.32007	6.04696	0.0742755	0.00341051	5.89599	0.0486265	6.27764	
734	7.33007	6.04735	0.078814	0.00408128	5.89618	0.0520334	6.27971	
735	7.34007	6.04793	0.0830011	0.00451742	5.89639	0.0553076	6.28167	
736	7.35007	6.04842	0.0868352	0.00480671	5.89607	0.0609391	0.00201217	
737	7.36007	6.04869	0.0903881	0.00505837	5.8956	0.0633766	0.00352934	
738	7.37007	6.0487	0.0935574	0.00522843	5.89492	0.0656427	0.00492401	
739	7.38007	6.04848	0.096428	0.00534632	5.89409	0.0677504	0.00614735	
740	7.39007	6.04838	0.0977599	0.00536537	5.89342	0.0697109	0.00720026	
741	7.40007	6.04854	0.101319	0.00520974	5.89311	0.0715004	0.0081611	
742	7.41007	6.04894	0.103301	0.0050701	5.89295	0.0747059	0.0097014	
743	7.42007	6.0494	0.104967	0.00490111	5.89295	0.076064	0.0102706	
744	7.43008	6.04975	0.106413	0.00474511	5.89291	0.0772903	0.0107364	
745	7.44008	6.05	0.107666	0.00452742	5.89263	0.0782996	0.0111822	
746	7.45008	6.05026	0.108763	0.00425137	5.89215	0.0791654	0.0116629	
747	7.46008	6.05049	0.109785	0.00396176	5.88993	0.0803095	0.0130996	
748	7.47008	6.05077	0.11068	0.00363538	5.88855	0.0805591	0.0139834	
749	7.48008	6.0507	0.111468	0.00305999	5.88752	0.0806918	0.0148739	
750	7.49008	6.0507	0.111468	0.00305999	5.88661	0.0808232	0.0156692	
751	7.50008	6.05051	0.112055	0.00252175	5.88572	0.0809706	0.0163509	
752	7.51008	6.04939	0.112886	0.00144744	5.88459	0.0810601	0.0170293	
753	7.52008	6.04906	0.113239	0.00076248	5.8824	0.0810267	0.0181465	
754	7.53008	6.04891	0.113365	0.00051185	5.88141	0.0807712	0.0187201	
755	7.54008	6.04893	0.113547	3.20504e-005	5.88099	0.0803967	0.0193284	
756	7.55008	6.04949	0.113609	6.28245	5.88114	0.0800148	0.0199434	
757	7.56008	6.05016	0.113465	6.282	5.88166	0.0792388	0.0210209	
758	7.57008	6.05064	0.113257	6.28161	5.8819	0.0788203	0.0215721	
759	7.58008	6.05078	0.112949	6.28125	5.88182	0.0783387	0.0221455	
760	7.59008	6.05077	0.112768	6.28106	5.88127	0.0777572	0.0227259	
